<svg width="210" height="210" xmlns:xlink="http://www.w3.org/1999/xlink" xmlns="http://www.w3.org/2000/svg"><defs><linearGradient id="b"><stop style="stop-color:#09d963;stop-opacity:.99607843" offset="0"/><stop style="stop-color:#16630f;stop-opacity:1" offset="1"/></linearGradient><linearGradient xlink:href="#a" id="c" x1="10.76" y1="-70.15" x2="-142.829" y2="83.22" gradientUnits="userSpaceOnUse" gradientTransform="matrix(2.04139 0 0 2.04139 218.217 114.13)"/><linearGradient id="a"><stop style="stop-color:#636062;stop-opacity:1" offset="0"/><stop style="stop-color:#000;stop-opacity:1" offset="1"/></linearGradient><linearGradient xlink:href="#b" id="d" x1="105" y1="37.5" x2="105" y2="209.493" gradientUnits="userSpaceOnUse"/><linearGradient xlink:href="#a" id="f" x1="0" y1="253.723" x2="175" y2="253.723" gradientUnits="userSpaceOnUse" gradientTransform="translate(17.5 -148.723)"/><linearGradient xlink:href="#a" id="e" x1="42.037" y1="105" x2="167.963" y2="105" gradientUnits="userSpaceOnUse"/></defs><path style="display:inline;fill:url(#c);fill-opacity:1;stroke:none;stroke-width:75.9294;stroke-miterlimit:4;stroke-dasharray:none;stroke-dashoffset:0;stroke-opacity:1;paint-order:markers fill stroke" d="M0 0v210h210V0zm105 37.5a67.5 67.5 0 0 1 67.5 67.5 67.5 67.5 0 0 1-67.5 67.5A67.5 67.5 0 0 1 37.5 105 67.5 67.5 0 0 1 105 37.5z"/><rect style="fill:url(#d);fill-opacity:1;paint-order:markers fill stroke;stroke:none;stroke-opacity:1" width="167.183" height="116.012" x="21.408" y="46.994" rx="20.735" stroke="#fff" stroke-width="7.817"/><g aria-label="J2LE" style="font-size:55px;line-height:1.25;fill:url(#e);fill-opacity:1"><path d="M66.852 112.95q0 2.631-.94 4.94-.94 2.283-2.793 3.868-1.96 1.692-4.727 2.632-2.766.913-6.848.913-2.766 0-5.21-.215-2.444-.188-4.297-.564v-8.11h.967q1.29.483 2.686.913 1.396.402 3.571.402 2.82 0 4.324-.751 1.531-.752 2.175-2.095.618-1.316.699-2.874.08-1.584.08-4.028V92.056h-9.157v-7.359h19.47zM81.537 104.28l-7.15-1.155q1.98-7.7 10.67-7.7 4.51 0 7.15 2.475 2.695 2.42 2.695 6.435 0 2.86-1.54 5.06-1.54 2.145-5.94 5.61-3.135 2.475-3.795 3.685h11.88v5.995h-21.56q0-3.63 2.145-6.985 2.2-3.355 5.5-5.995 3.355-2.64 4.565-4.235 1.265-1.595 1.265-3.245 0-1.265-.825-2.035-.77-.77-1.98-.77-2.42 0-3.08 2.86zM132.863 124.685H104.02V84.697h10.312v32.254h18.53zM167.963 124.685h-28.924V84.697h28.924v7.735h-18.665v6.901h17.322v7.735h-17.322v9.883h18.665z" style="font-weight:700;font-family:'Arial Hebrew';-inkscape-font-specification:'Arial Hebrew Bold';fill-opacity:1;fill:url(#e)"/></g><path style="fill:url(#f);fill-opacity:1;stroke-width:37.195;paint-order:markers fill stroke" d="M42.143 43.086c-13.585 0-24.643 11.058-24.643 24.643v74.542c0 13.585 11.058 24.643 24.643 24.643h125.714c13.585 0 24.643-11.058 24.643-24.643V67.73c0-13.585-11.058-24.643-24.643-24.643zm0 7.816h125.714c9.39 0 16.827 7.437 16.827 16.827V98.8l-4.96 2.865-5.777 3.334 5.778 3.334 4.959 2.865v31.072c0 9.39-7.437 16.827-16.827 16.827H42.143c-9.39 0-16.827-7.437-16.827-16.827V111.2l4.96-2.865L36.052 105l-5.778-3.334-4.959-2.865V67.729c0-9.39 7.437-16.827 16.827-16.827z"/></svg>